<svg width="35" height="27" viewBox="0 0 35 27" fill="none" xmlns="http://www.w3.org/2000/svg">
<g id="Frame 1">
<g id="cart">
<g id="bag">
<path id="Ellipse 3" d="M 20.7 5.3 C 20.7 5.9 20.4 6.2 20.1 6.5 C 19.6 6.8 19 6.9 18.2 6.9 C 17.4 6.9 16.8 6.8 16.3 6.5 C 15.9 6.2 15.7 5.9 15.7 5.3 C 15.7 4 16.8 2.9 18.2 2.9 C 19.6 2.9 20.7 4 20.7 5.3 Z" fill="#d9d9d9" stroke="black"/>
<path id="Ellipse 1" d="M 17 6.1 C 17 6.5 16.9 6.7 16.6 6.9 C 16.4 7 16 7.1 15.5 7.1 C 15 7.1 14.6 7 14.4 6.9 C 14.1 6.7 14 6.5 14 6.1 C 14 5.3 14.7 4.6 15.5 4.6 C 16.3 4.6 17 5.3 17 6.1 Z" fill="#d9d9d9" stroke="black"/>
<path id="Ellipse 2" d="M 22 6.1 C 22 6.5 21.9 6.7 21.6 6.9 C 21.4 7 21 7.1 20.5 7.1 C 20 7.1 19.6 7 19.4 6.9 C 19.1 6.7 19 6.5 19 6.1 C 19 5.3 19.7 4.6 20.5 4.6 C 21.3 4.6 22 5.3 22 6.1 Z" fill="#d9d9d9" stroke="black"/>
</g>
<g id="icon-cart" clip-path="url(#clip0_2_2)">
<g id="cart_2">
<path id="Vector" d="M 24.4 15.4 C 24.4 14.9 24.2 14.4 24 14 C 23.7 13.6 23.3 13.3 22.9 13.2 L 24.4 7.6 C 24.4 7.5 24.4 7.3 24.4 7.2 C 24.3 7.1 24.3 7 24.2 6.9 C 24.1 6.8 24 6.7 23.9 6.7 C 23.8 6.6 23.7 6.6 23.6 6.6 H 12.6 L 12.4 5.6 C 12.3 5.4 12.2 5.3 12.1 5.2 C 11.9 5.1 11.8 5 11.6 5 H 10 V 6.6 H 11 L 13 14 C 13 14.2 13.1 14.3 13.3 14.4 C 13.4 14.5 13.6 14.6 13.8 14.6 H 22 C 22.2 14.6 22.4 14.7 22.5 14.8 C 22.7 15 22.8 15.2 22.8 15.4 C 22.8 15.6 22.7 15.8 22.5 15.9 C 22.4 16.1 22.2 16.2 22 16.2 H 11.6 C 11.5 16.2 11.4 16.2 11.3 16.2 C 11.2 16.3 11.1 16.3 11 16.4 C 10.9 16.5 10.9 16.6 10.8 16.7 C 10.8 16.8 10.8 16.9 10.8 17 C 10.8 17.1 10.8 17.2 10.8 17.3 C 10.9 17.4 10.9 17.5 11 17.6 C 11.1 17.6 11.2 17.7 11.3 17.7 C 11.4 17.8 11.5 17.8 11.6 17.8 H 12.5 C 12.4 18.1 12.4 18.5 12.4 18.9 C 12.5 19.3 12.6 19.7 12.8 20 C 13.1 20.3 13.3 20.6 13.7 20.7 C 14 20.9 14.4 21 14.8 21 C 15.2 21 15.6 20.9 15.9 20.7 C 16.2 20.6 16.5 20.3 16.8 20 C 17 19.7 17.1 19.3 17.2 18.9 C 17.2 18.5 17.2 18.1 17 17.8 H 18.9 C 18.8 18.2 18.8 18.6 18.8 19 C 18.9 19.4 19 19.7 19.3 20.1 C 19.5 20.4 19.9 20.6 20.2 20.8 C 20.6 21 21 21 21.4 21 C 21.8 21 22.2 20.8 22.5 20.6 C 22.9 20.4 23.1 20.1 23.3 19.7 C 23.5 19.4 23.6 19 23.6 18.6 C 23.6 18.2 23.5 17.8 23.3 17.4 C 23.6 17.2 23.9 16.9 24.1 16.5 C 24.3 16.2 24.4 15.8 24.4 15.4 H 24.4 Z M 21.3 13 H 14.4 L 13.1 8.2 H 22.5 L 21.3 13 V 13 Z M 14.8 19.4 C 14.7 19.4 14.6 19.4 14.5 19.3 C 14.4 19.3 14.3 19.2 14.2 19.2 C 14.1 19.1 14.1 19 14 18.9 C 14 18.8 14 18.7 14 18.6 C 14 18.5 14 18.4 14 18.3 C 14.1 18.2 14.1 18.1 14.2 18 C 14.3 17.9 14.4 17.9 14.5 17.8 C 14.6 17.8 14.7 17.8 14.8 17.8 C 15 17.8 15.2 17.9 15.3 18 C 15.5 18.2 15.6 18.4 15.6 18.6 C 15.6 18.8 15.5 19 15.3 19.1 C 15.2 19.3 15 19.4 14.8 19.4 Z M 21.2 19.4 C 21.1 19.4 21 19.4 20.9 19.3 C 20.8 19.3 20.7 19.2 20.6 19.2 C 20.5 19.1 20.5 19 20.4 18.9 C 20.4 18.8 20.3 18.7 20.3 18.6 C 20.3 18.5 20.4 18.4 20.4 18.3 C 20.5 18.2 20.5 18.1 20.6 18 C 20.7 17.9 20.8 17.9 20.9 17.8 C 21 17.8 21.1 17.8 21.2 17.8 C 21.4 17.8 21.6 17.9 21.7 18 C 21.9 18.2 21.9 18.4 21.9 18.6 C 21.9 18.8 21.9 19 21.7 19.1 C 21.6 19.3 21.4 19.4 21.2 19.4 Z" fill="black"/>
<path id="Rectangle 1" d="M 12.5 7.5 H 23.5 L 22 13.5 H 14 L 12.5 7.5 Z" fill="#d9d9d9"/>
</g>
</g>
</g>
<g id="go">
<path id="Vector 2" d="M 7.9 10.9 C 7.9 10.9 6.3 10.8 1.1 8.7 M 7.9 12.1 L 1.1 13.1" stroke="black"/>
<path id="Vector 3" d="M 7.9 15.7 C 6.2 15.7 2.5 16.5 0.9 18" stroke="black"/>
<path id="Vector 4" d="M 7.9 6.2 C 6.2 6.2 2.5 5.4 0.9 3.8" stroke="black"/>
</g>
</g>
<defs>
<clipPath id="clip0_2_2">
<rect width="15" height="16" fill="white" transform="translate(10,5)"/>
</clipPath>
</defs>
</svg>
